<svg width="24" height="24" viewBox="0 0 24 24" fill="none" xmlns="http://www.w3.org/2000/svg">
<path fill-rule="evenodd" clip-rule="evenodd" d="M10.5 17C8.77674 16.9979 7.12467 16.3124 5.90614 15.0939C4.68762 13.8753 4.00212 12.2233 4 10.5C4 6.916 6.916 4 10.5 4C14.084 4 17 6.916 17 10.5C17 14.084 14.084 17 10.5 17ZM17.169 15.755C18.355 14.2602 19.0004 12.4081 19 10.5C19 5.813 15.187 2 10.5 2C5.813 2 2 5.813 2 10.5C2 15.187 5.813 19 10.5 19C12.4078 19.0002 14.2595 18.3549 15.754 17.169L20.586 22H22V20.586L17.169 15.755Z" fill="white"/>
</svg>